<?xml version="1.0" encoding="utf-8"?>
<!-- Generator: Adobe Illustrator 24.2.3, SVG Export Plug-In . SVG Version: 6.00 Build 0)  -->
<svg version="1.1" id="Layer_1" xmlns="http://www.w3.org/2000/svg" xmlns:xlink="http://www.w3.org/1999/xlink" x="0px" y="0px"
	 viewBox="0 0 252 288" style="enable-background:new 0 0 252 288;" xml:space="preserve">
<style type="text/css">
	.st0{fill:#111C4E;}
</style>
<path class="st0" d="M82.6,151.7c-2.1-1.3-6.9-2-12.3-2h-4.8v18.1h4.9c3.7,0,7.6-0.2,9.7-0.7c2-0.5,3.5-1.3,4.4-2.6
	c0.9-1.2,2.3-3.1,2.3-5.5C86.7,155.5,84.7,153,82.6,151.7z M82.3,58.5c-2.3-1.4-7-2.1-12.1-2.1h-4.8v18.1h4.9
	c5.5,0,10.3-0.6,12.3-1.8c2-1.2,4-3.5,4-7C86.7,62.2,84.6,59.8,82.3,58.5z M82.3,58.5c-2.3-1.4-7-2.1-12.1-2.1h-4.8v18.1h4.9
	c5.5,0,10.3-0.6,12.3-1.8c2-1.2,4-3.5,4-7C86.7,62.2,84.6,59.8,82.3,58.5z M82.6,151.7c-2.1-1.3-6.9-2-12.3-2h-4.8v18.1h4.9
	c3.7,0,7.6-0.2,9.7-0.7c2-0.5,3.5-1.3,4.4-2.6c0.9-1.2,2.3-3.1,2.3-5.5C86.7,155.5,84.7,153,82.6,151.7z M82.3,58.5
	c-2.3-1.4-7-2.1-12.1-2.1h-4.8v18.1h4.9c5.5,0,10.3-0.6,12.3-1.8c2-1.2,4-3.5,4-7C86.7,62.2,84.6,59.8,82.3,58.5z M82.6,151.7
	c-2.1-1.3-6.9-2-12.3-2h-4.8v18.1h4.9c3.7,0,7.6-0.2,9.7-0.7c2-0.5,3.5-1.3,4.4-2.6c0.9-1.2,2.3-3.1,2.3-5.5
	C86.7,155.5,84.7,153,82.6,151.7z M82.3,58.5c-2.3-1.4-7-2.1-12.1-2.1h-4.8v18.1h4.9c5.5,0,10.3-0.6,12.3-1.8c2-1.2,4-3.5,4-7
	C86.7,62.2,84.6,59.8,82.3,58.5z M82.6,151.7c-2.1-1.3-6.9-2-12.3-2h-4.8v18.1h4.9c3.7,0,7.6-0.2,9.7-0.7c2-0.5,3.5-1.3,4.4-2.6
	c0.9-1.2,2.3-3.1,2.3-5.5C86.7,155.5,84.7,153,82.6,151.7z M82.3,58.5c-2.3-1.4-7-2.1-12.1-2.1h-4.8v18.1h4.9
	c5.5,0,10.3-0.6,12.3-1.8c2-1.2,4-3.5,4-7C86.7,62.2,84.6,59.8,82.3,58.5z M82.6,151.7c-2.1-1.3-6.9-2-12.3-2h-4.8v18.1h4.9
	c3.7,0,7.6-0.2,9.7-0.7c2-0.5,3.5-1.3,4.4-2.6c0.9-1.2,2.3-3.1,2.3-5.5C86.7,155.5,84.7,153,82.6,151.7z M82.3,58.5
	c-2.3-1.4-7-2.1-12.1-2.1h-4.8v18.1h4.9c5.5,0,10.3-0.6,12.3-1.8c2-1.2,4-3.5,4-7C86.7,62.2,84.6,59.8,82.3,58.5z M82.6,151.7
	c-2.1-1.3-6.9-2-12.3-2h-4.8v18.1h4.9c3.7,0,7.6-0.2,9.7-0.7c2-0.5,3.5-1.3,4.4-2.6c0.9-1.2,2.3-3.1,2.3-5.5
	C86.7,155.5,84.7,153,82.6,151.7z M23.1,21.9v207.7h207.7V21.9H23.1z M126.8,42h20.5l21.1,28.1L189.5,42H210v75h-22.6V73.5L169,98.7
	h-1.8l-18.5-25.2V117h-22V42z M107.4,167.1c-1,2.7-2.5,5.1-4.6,7.4c-2.2,2.3-5,4.2-8.6,5.6c-3.6,1.4-7.9,2.1-12.8,2.1H65.5v28.1
	H42.9v-75h38.4c4.9,0,9.2,0.7,12.8,2.2c3.6,1.5,6.5,3.3,8.6,5.6c2.1,2.3,3.7,4.8,4.6,7.5c1,2.7,1.4,5.5,1.4,8.3
	C108.8,161.7,108.3,164.4,107.4,167.1z M91.2,117l-5.9-13.3c-2.2-4.9-4.1-8.4-5.8-10.7c-1.7-2.2-3.4-3.7-5.1-4.3
	c-1.6-0.6-3.8-0.9-6.4-0.9h-2.6V117H42.9V42h38.5c6.2,0,12.3,1.3,16.2,3.8c4,2.5,6.8,5.6,8.6,9.2c1.8,3.6,2.6,7,2.6,10.3
	c0,3.8-0.7,7-2.2,9.6c-1.5,2.6-3,4.5-4.6,5.7c-1.6,1.2-4.4,2.3-6.5,3.4c2.4,1.4,4.4,3.1,6,5c1.6,2,3.7,5.8,6.4,11.7l7.6,16.3H91.2z
	 M183.4,210.3l-34.7-35.1v35.1h-21.9v-75h21.9v30.1l33.1-30.1H208l-36.3,34.1l1.5,1.1l38.8,39.9H183.4z M82.6,151.7
	c-2.1-1.3-6.9-2-12.3-2h-4.8v18.1h4.9c3.7,0,7.6-0.2,9.7-0.7c2-0.5,3.5-1.3,4.4-2.6c0.9-1.2,2.3-3.1,2.3-5.5
	C86.7,155.5,84.7,153,82.6,151.7z M82.3,58.5c-2.3-1.4-7-2.1-12.1-2.1h-4.8v18.1h4.9c5.5,0,10.3-0.6,12.3-1.8c2-1.2,4-3.5,4-7
	C86.7,62.2,84.6,59.8,82.3,58.5z M82.6,151.7c-2.1-1.3-6.9-2-12.3-2h-4.8v18.1h4.9c3.7,0,7.6-0.2,9.7-0.7c2-0.5,3.5-1.3,4.4-2.6
	c0.9-1.2,2.3-3.1,2.3-5.5C86.7,155.5,84.7,153,82.6,151.7z M82.3,58.5c-2.3-1.4-7-2.1-12.1-2.1h-4.8v18.1h4.9
	c5.5,0,10.3-0.6,12.3-1.8c2-1.2,4-3.5,4-7C86.7,62.2,84.6,59.8,82.3,58.5z M82.6,151.7c-2.1-1.3-6.9-2-12.3-2h-4.8v18.1h4.9
	c3.7,0,7.6-0.2,9.7-0.7c2-0.5,3.5-1.3,4.4-2.6c0.9-1.2,2.3-3.1,2.3-5.5C86.7,155.5,84.7,153,82.6,151.7z M82.3,58.5
	c-2.3-1.4-7-2.1-12.1-2.1h-4.8v18.1h4.9c5.5,0,10.3-0.6,12.3-1.8c2-1.2,4-3.5,4-7C86.7,62.2,84.6,59.8,82.3,58.5z M82.6,151.7
	c-2.1-1.3-6.9-2-12.3-2h-4.8v18.1h4.9c3.7,0,7.6-0.2,9.7-0.7c2-0.5,3.5-1.3,4.4-2.6c0.9-1.2,2.3-3.1,2.3-5.5
	C86.7,155.5,84.7,153,82.6,151.7z M82.3,58.5c-2.3-1.4-7-2.1-12.1-2.1h-4.8v18.1h4.9c5.5,0,10.3-0.6,12.3-1.8c2-1.2,4-3.5,4-7
	C86.7,62.2,84.6,59.8,82.3,58.5z M82.3,58.5c-2.3-1.4-7-2.1-12.1-2.1h-4.8v18.1h4.9c5.5,0,10.3-0.6,12.3-1.8c2-1.2,4-3.5,4-7
	C86.7,62.2,84.6,59.8,82.3,58.5z M82.6,151.7c-2.1-1.3-6.9-2-12.3-2h-4.8v18.1h4.9c3.7,0,7.6-0.2,9.7-0.7c2-0.5,3.5-1.3,4.4-2.6
	c0.9-1.2,2.3-3.1,2.3-5.5C86.7,155.5,84.7,153,82.6,151.7z M82.6,151.7c-2.1-1.3-6.9-2-12.3-2h-4.8v18.1h4.9c3.7,0,7.6-0.2,9.7-0.7
	c2-0.5,3.5-1.3,4.4-2.6c0.9-1.2,2.3-3.1,2.3-5.5C86.7,155.5,84.7,153,82.6,151.7z M82.6,151.7c-2.1-1.3-6.9-2-12.3-2h-4.8v18.1h4.9
	c3.7,0,7.6-0.2,9.7-0.7c2-0.5,3.5-1.3,4.4-2.6c0.9-1.2,2.3-3.1,2.3-5.5C86.7,155.5,84.7,153,82.6,151.7z"/>
<g>
	<path class="st0" d="M29.4,247.1h2l8.7,19.6h-2.9l-2.6-5.8h-8.3l-2.4,5.8H21L29.4,247.1z M33.5,258.5l-3.1-7.1l-2.9,7.1H33.5z"/>
	<path class="st0" d="M60.3,262.2v3.1c-2,1.1-4.4,1.7-7.1,1.7c-2.2,0-4-0.4-5.5-1.3c-1.5-0.9-2.7-2.1-3.6-3.6
		c-0.9-1.5-1.3-3.2-1.3-5c0-2.8,1-5.2,3-7.2c2-1.9,4.5-2.9,7.5-2.9c2,0,4.3,0.5,6.8,1.6v3c-2.3-1.3-4.5-2-6.7-2
		c-2.2,0-4.1,0.7-5.6,2.1c-1.5,1.4-2.2,3.2-2.2,5.3c0,2.1,0.7,3.9,2.2,5.3c1.5,1.4,3.3,2.1,5.6,2.1C55.7,264.4,58,263.7,60.3,262.2z
		"/>
	<path class="st0" d="M82.3,262.2v3.1c-2,1.1-4.4,1.7-7.1,1.7c-2.2,0-4-0.4-5.5-1.3c-1.5-0.9-2.7-2.1-3.6-3.6
		c-0.9-1.5-1.3-3.2-1.3-5c0-2.8,1-5.2,3-7.2c2-1.9,4.5-2.9,7.5-2.9c2,0,4.3,0.5,6.8,1.6v3c-2.3-1.3-4.5-2-6.7-2
		c-2.2,0-4.1,0.7-5.6,2.1c-1.5,1.4-2.2,3.2-2.2,5.3c0,2.1,0.7,3.9,2.2,5.3c1.5,1.4,3.3,2.1,5.6,2.1C77.7,264.4,80,263.7,82.3,262.2z
		"/>
	<path class="st0" d="M97.1,247c3,0,5.5,1,7.5,2.9c2,1.9,3,4.3,3,7.2c0,2.9-1,5.3-3,7.1c-2,1.9-4.6,2.8-7.7,2.8
		c-2.9,0-5.4-0.9-7.3-2.8s-2.9-4.3-2.9-7.1c0-2.9,1-5.3,3-7.2S94.1,247,97.1,247z M97.2,249.6c-2.2,0-4.1,0.7-5.5,2.1
		c-1.4,1.4-2.2,3.2-2.2,5.3c0,2.1,0.7,3.9,2.2,5.3c1.4,1.4,3.2,2.1,5.4,2.1c2.2,0,4-0.7,5.4-2.1c1.5-1.4,2.2-3.2,2.2-5.3
		c0-2.1-0.7-3.8-2.2-5.2C101.1,250.3,99.3,249.6,97.2,249.6z"/>
	<path class="st0" d="M126.9,247.2h2.8v11.1c0,1.5-0.1,2.6-0.3,3.4c-0.2,0.8-0.5,1.4-0.8,1.9c-0.3,0.5-0.7,1-1.2,1.4
		c-1.5,1.3-3.6,2-6.1,2c-2.5,0-4.6-0.7-6.1-2c-0.5-0.4-0.9-0.9-1.2-1.4c-0.3-0.5-0.6-1.1-0.8-1.9c-0.2-0.7-0.3-1.9-0.3-3.5v-11h2.8
		v11.1c0,1.8,0.2,3.1,0.6,3.8c0.4,0.7,1.1,1.3,1.9,1.7c0.9,0.4,1.9,0.7,3,0.7c1.7,0,3-0.4,4-1.3c0.6-0.5,0.9-1,1.2-1.6
		c0.2-0.6,0.4-1.7,0.4-3.3V247.2z"/>
	<path class="st0" d="M151.6,247.2h2.7v19.5h-2.4l-13-15v15h-2.6v-19.5h2.3l13.2,15.2V247.2z"/>
	<path class="st0" d="M158.8,247.2h16.3v2.5h-6.8v17.1h-2.8v-17.1h-6.7V247.2z"/>
	<path class="st0" d="M179.8,247.2h2.8v19.5h-2.8V247.2z"/>
	<path class="st0" d="M204.7,247.2h2.7v19.5H205l-13-15v15h-2.6v-19.5h2.3l13.2,15.2V247.2z"/>
	<path class="st0" d="M224.3,257.1h6.5v8.3c-2.4,1-4.8,1.6-7.2,1.6c-3.2,0-5.8-0.9-7.7-2.8s-2.9-4.2-2.9-7c0-2.9,1-5.3,3-7.3
		c2-1.9,4.5-2.9,7.5-2.9c1.1,0,2.1,0.1,3.1,0.4c1,0.2,2.2,0.7,3.7,1.3v2.8c-2.3-1.4-4.6-2-6.9-2c-2.1,0-3.9,0.7-5.4,2.2
		c-1.5,1.5-2.2,3.2-2.2,5.3c0,2.2,0.7,4,2.2,5.4s3.3,2.1,5.6,2.1c1.1,0,2.5-0.3,4-0.8l0.3-0.1v-4.1h-3.8V257.1z"/>
</g>
</svg>
