<?xml version="1.0" encoding="utf-8"?>
<!-- Generator: Adobe Illustrator 24.2.3, SVG Export Plug-In . SVG Version: 6.00 Build 0)  -->
<svg version="1.1" id="Layer_1" xmlns="http://www.w3.org/2000/svg" xmlns:xlink="http://www.w3.org/1999/xlink" x="0px" y="0px"
	 viewBox="0 0 252 252" style="enable-background:new 0 0 252 252;" xml:space="preserve">
<style type="text/css">
	.st0{fill:#FFFFFF;}
</style>
<path class="st0" d="M81.6,152c-2.1-1.3-6.9-2-12.3-2h-4.8V168h4.9c3.7,0,7.6-0.2,9.7-0.7c2-0.5,3.5-1.3,4.4-2.6
	c0.9-1.2,2.3-3.1,2.3-5.5C85.7,155.7,83.7,153.3,81.6,152z M81.3,58.7c-2.3-1.4-7-2.1-12.1-2.1h-4.8v18.1h4.9
	c5.5,0,10.3-0.6,12.3-1.8c2-1.2,4-3.5,4-7C85.7,62.5,83.6,60.1,81.3,58.7z M81.3,58.7c-2.3-1.4-7-2.1-12.1-2.1h-4.8v18.1h4.9
	c5.5,0,10.3-0.6,12.3-1.8c2-1.2,4-3.5,4-7C85.7,62.5,83.6,60.1,81.3,58.7z M81.6,152c-2.1-1.3-6.9-2-12.3-2h-4.8V168h4.9
	c3.7,0,7.6-0.2,9.7-0.7c2-0.5,3.5-1.3,4.4-2.6c0.9-1.2,2.3-3.1,2.3-5.5C85.7,155.7,83.7,153.3,81.6,152z M81.3,58.7
	c-2.3-1.4-7-2.1-12.1-2.1h-4.8v18.1h4.9c5.5,0,10.3-0.6,12.3-1.8c2-1.2,4-3.5,4-7C85.7,62.5,83.6,60.1,81.3,58.7z M81.6,152
	c-2.1-1.3-6.9-2-12.3-2h-4.8V168h4.9c3.7,0,7.6-0.2,9.7-0.7c2-0.5,3.5-1.3,4.4-2.6c0.9-1.2,2.3-3.1,2.3-5.5
	C85.7,155.7,83.7,153.3,81.6,152z M81.3,58.7c-2.3-1.4-7-2.1-12.1-2.1h-4.8v18.1h4.9c5.5,0,10.3-0.6,12.3-1.8c2-1.2,4-3.5,4-7
	C85.7,62.5,83.6,60.1,81.3,58.7z M81.6,152c-2.1-1.3-6.9-2-12.3-2h-4.8V168h4.9c3.7,0,7.6-0.2,9.7-0.7c2-0.5,3.5-1.3,4.4-2.6
	c0.9-1.2,2.3-3.1,2.3-5.5C85.7,155.7,83.7,153.3,81.6,152z M81.3,58.7c-2.3-1.4-7-2.1-12.1-2.1h-4.8v18.1h4.9
	c5.5,0,10.3-0.6,12.3-1.8c2-1.2,4-3.5,4-7C85.7,62.5,83.6,60.1,81.3,58.7z M81.6,152c-2.1-1.3-6.9-2-12.3-2h-4.8V168h4.9
	c3.7,0,7.6-0.2,9.7-0.7c2-0.5,3.5-1.3,4.4-2.6c0.9-1.2,2.3-3.1,2.3-5.5C85.7,155.7,83.7,153.3,81.6,152z M81.3,58.7
	c-2.3-1.4-7-2.1-12.1-2.1h-4.8v18.1h4.9c5.5,0,10.3-0.6,12.3-1.8c2-1.2,4-3.5,4-7C85.7,62.5,83.6,60.1,81.3,58.7z M81.6,152
	c-2.1-1.3-6.9-2-12.3-2h-4.8V168h4.9c3.7,0,7.6-0.2,9.7-0.7c2-0.5,3.5-1.3,4.4-2.6c0.9-1.2,2.3-3.1,2.3-5.5
	C85.7,155.7,83.7,153.3,81.6,152z M22.1,22.1v207.7h207.7V22.1H22.1z M125.8,42.2h20.5l21.1,28.1l21.2-28.1H209v75h-22.6V73.8
	L168,99h-1.8l-18.5-25.2v43.5h-22V42.2z M106.4,167.3c-1,2.7-2.5,5.1-4.6,7.4c-2.2,2.3-5,4.2-8.6,5.6c-3.6,1.4-7.9,2.1-12.8,2.1
	H64.5v28.1H41.9v-75h38.4c4.9,0,9.2,0.7,12.8,2.2c3.6,1.5,6.5,3.3,8.6,5.6c2.1,2.3,3.7,4.8,4.6,7.5c1,2.7,1.4,5.5,1.4,8.3
	C107.8,162,107.3,164.7,106.4,167.3z M90.2,117.2L84.3,104c-2.2-4.9-4.1-8.4-5.8-10.7c-1.7-2.2-3.4-3.7-5.1-4.3
	C71.8,88.3,69.6,88,67,88h-2.6v29.3H41.9v-75h38.5c6.2,0,12.3,1.3,16.2,3.8c4,2.5,6.8,5.6,8.6,9.2c1.8,3.6,2.6,7,2.6,10.3
	c0,3.8-0.7,7-2.2,9.6c-1.5,2.6-3,4.5-4.6,5.7c-1.6,1.2-4.4,2.3-6.5,3.4c2.4,1.4,4.4,3.1,6,5c1.6,2,3.7,5.8,6.4,11.7l7.6,16.3H90.2z
	 M182.4,210.6l-34.7-35.1v35.1h-21.9v-75h21.9v30.1l33.1-30.1H207l-36.3,34.1l1.5,1.1l38.8,39.9H182.4z M81.6,152
	c-2.1-1.3-6.9-2-12.3-2h-4.8V168h4.9c3.7,0,7.6-0.2,9.7-0.7c2-0.5,3.5-1.3,4.4-2.6c0.9-1.2,2.3-3.1,2.3-5.5
	C85.7,155.7,83.7,153.3,81.6,152z M81.3,58.7c-2.3-1.4-7-2.1-12.1-2.1h-4.8v18.1h4.9c5.5,0,10.3-0.6,12.3-1.8c2-1.2,4-3.5,4-7
	C85.7,62.5,83.6,60.1,81.3,58.7z M81.6,152c-2.1-1.3-6.9-2-12.3-2h-4.8V168h4.9c3.7,0,7.6-0.2,9.7-0.7c2-0.5,3.5-1.3,4.4-2.6
	c0.9-1.2,2.3-3.1,2.3-5.5C85.7,155.7,83.7,153.3,81.6,152z M81.3,58.7c-2.3-1.4-7-2.1-12.1-2.1h-4.8v18.1h4.9
	c5.5,0,10.3-0.6,12.3-1.8c2-1.2,4-3.5,4-7C85.7,62.5,83.6,60.1,81.3,58.7z M81.6,152c-2.1-1.3-6.9-2-12.3-2h-4.8V168h4.9
	c3.7,0,7.6-0.2,9.7-0.7c2-0.5,3.5-1.3,4.4-2.6c0.9-1.2,2.3-3.1,2.3-5.5C85.7,155.7,83.7,153.3,81.6,152z M81.3,58.7
	c-2.3-1.4-7-2.1-12.1-2.1h-4.8v18.1h4.9c5.5,0,10.3-0.6,12.3-1.8c2-1.2,4-3.5,4-7C85.7,62.5,83.6,60.1,81.3,58.7z M81.6,152
	c-2.1-1.3-6.9-2-12.3-2h-4.8V168h4.9c3.7,0,7.6-0.2,9.7-0.7c2-0.5,3.5-1.3,4.4-2.6c0.9-1.2,2.3-3.1,2.3-5.5
	C85.7,155.7,83.7,153.3,81.6,152z M81.3,58.7c-2.3-1.4-7-2.1-12.1-2.1h-4.8v18.1h4.9c5.5,0,10.3-0.6,12.3-1.8c2-1.2,4-3.5,4-7
	C85.7,62.5,83.6,60.1,81.3,58.7z M81.3,58.7c-2.3-1.4-7-2.1-12.1-2.1h-4.8v18.1h4.9c5.5,0,10.3-0.6,12.3-1.8c2-1.2,4-3.5,4-7
	C85.7,62.5,83.6,60.1,81.3,58.7z M81.6,152c-2.1-1.3-6.9-2-12.3-2h-4.8V168h4.9c3.7,0,7.6-0.2,9.7-0.7c2-0.5,3.5-1.3,4.4-2.6
	c0.9-1.2,2.3-3.1,2.3-5.5C85.7,155.7,83.7,153.3,81.6,152z M81.6,152c-2.1-1.3-6.9-2-12.3-2h-4.8V168h4.9c3.7,0,7.6-0.2,9.7-0.7
	c2-0.5,3.5-1.3,4.4-2.6c0.9-1.2,2.3-3.1,2.3-5.5C85.7,155.7,83.7,153.3,81.6,152z M81.6,152c-2.1-1.3-6.9-2-12.3-2h-4.8V168h4.9
	c3.7,0,7.6-0.2,9.7-0.7c2-0.5,3.5-1.3,4.4-2.6c0.9-1.2,2.3-3.1,2.3-5.5C85.7,155.7,83.7,153.3,81.6,152z"/>
</svg>
