<?xml version="1.0" encoding="utf-8"?>
<!-- Generator: Adobe Illustrator 24.2.3, SVG Export Plug-In . SVG Version: 6.00 Build 0)  -->
<svg version="1.1" id="Layer_1" xmlns="http://www.w3.org/2000/svg" xmlns:xlink="http://www.w3.org/1999/xlink" x="0px" y="0px"
	 viewBox="0 0 252 252" style="enable-background:new 0 0 252 252;" xml:space="preserve">
<style type="text/css">
	.st0{fill:#111C4E;}
	.st1{fill:#FFFFFF;}
</style>
<path class="st0" d="M81.6,152c-2.1-1.3-6.9-2-12.3-2h-4.8V168h4.9c3.7,0,7.6-0.2,9.7-0.7c2-0.5,3.5-1.3,4.4-2.6
	c0.9-1.2,2.3-3.1,2.3-5.5C85.7,155.7,83.7,153.3,81.6,152z M81.3,58.7c-2.3-1.4-7-2.1-12.1-2.1h-4.8v18.1h4.9
	c5.5,0,10.3-0.6,12.3-1.8c2-1.2,4-3.5,4-7C85.7,62.5,83.6,60.1,81.3,58.7z M81.3,58.7c-2.3-1.4-7-2.1-12.1-2.1h-4.8v18.1h4.9
	c5.5,0,10.3-0.6,12.3-1.8c2-1.2,4-3.5,4-7C85.7,62.5,83.6,60.1,81.3,58.7z M81.6,152c-2.1-1.3-6.9-2-12.3-2h-4.8V168h4.9
	c3.7,0,7.6-0.2,9.7-0.7c2-0.5,3.5-1.3,4.4-2.6c0.9-1.2,2.3-3.1,2.3-5.5C85.7,155.7,83.7,153.3,81.6,152z M81.3,58.7
	c-2.3-1.4-7-2.1-12.1-2.1h-4.8v18.1h4.9c5.5,0,10.3-0.6,12.3-1.8c2-1.2,4-3.5,4-7C85.7,62.5,83.6,60.1,81.3,58.7z M81.6,152
	c-2.1-1.3-6.9-2-12.3-2h-4.8V168h4.9c3.7,0,7.6-0.2,9.7-0.7c2-0.5,3.5-1.3,4.4-2.6c0.9-1.2,2.3-3.1,2.3-5.5
	C85.7,155.7,83.7,153.3,81.6,152z M81.3,58.7c-2.3-1.4-7-2.1-12.1-2.1h-4.8v18.1h4.9c5.5,0,10.3-0.6,12.3-1.8c2-1.2,4-3.5,4-7
	C85.7,62.5,83.6,60.1,81.3,58.7z M81.6,152c-2.1-1.3-6.9-2-12.3-2h-4.8V168h4.9c3.7,0,7.6-0.2,9.7-0.7c2-0.5,3.5-1.3,4.4-2.6
	c0.9-1.2,2.3-3.1,2.3-5.5C85.7,155.7,83.7,153.3,81.6,152z M81.3,58.7c-2.3-1.4-7-2.1-12.1-2.1h-4.8v18.1h4.9
	c5.5,0,10.3-0.6,12.3-1.8c2-1.2,4-3.5,4-7C85.7,62.5,83.6,60.1,81.3,58.7z M81.6,152c-2.1-1.3-6.9-2-12.3-2h-4.8V168h4.9
	c3.7,0,7.6-0.2,9.7-0.7c2-0.5,3.5-1.3,4.4-2.6c0.9-1.2,2.3-3.1,2.3-5.5C85.7,155.7,83.7,153.3,81.6,152z M81.3,58.7
	c-2.3-1.4-7-2.1-12.1-2.1h-4.8v18.1h4.9c5.5,0,10.3-0.6,12.3-1.8c2-1.2,4-3.5,4-7C85.7,62.5,83.6,60.1,81.3,58.7z M81.6,152
	c-2.1-1.3-6.9-2-12.3-2h-4.8V168h4.9c3.7,0,7.6-0.2,9.7-0.7c2-0.5,3.5-1.3,4.4-2.6c0.9-1.2,2.3-3.1,2.3-5.5
	C85.7,155.7,83.7,153.3,81.6,152z M22.1,22.1v207.7h207.7V22.1H22.1z M125.8,42.2h20.5l21.1,28.1l21.2-28.1H209v75h-22.6V73.8
	L168,99h-1.8l-18.5-25.2v43.5h-22V42.2z M106.4,167.3c-1,2.7-2.5,5.1-4.6,7.4c-2.2,2.3-5,4.2-8.6,5.6c-3.6,1.4-7.9,2.1-12.8,2.1
	H64.5v28.1H41.9v-75h38.4c4.9,0,9.2,0.7,12.8,2.2c3.6,1.5,6.5,3.3,8.6,5.6c2.1,2.3,3.7,4.8,4.6,7.5c1,2.7,1.4,5.5,1.4,8.3
	C107.8,162,107.3,164.7,106.4,167.3z M90.2,117.2L84.3,104c-2.2-4.9-4.1-8.4-5.8-10.7c-1.7-2.2-3.4-3.7-5.1-4.3
	C71.8,88.3,69.6,88,67,88h-2.6v29.3H41.9v-75h38.5c6.2,0,12.3,1.3,16.2,3.8c4,2.5,6.8,5.6,8.6,9.2c1.8,3.6,2.6,7,2.6,10.3
	c0,3.8-0.7,7-2.2,9.6c-1.5,2.6-3,4.5-4.6,5.7c-1.6,1.2-4.4,2.3-6.5,3.4c2.4,1.4,4.4,3.1,6,5c1.6,2,3.7,5.8,6.4,11.7l7.6,16.3H90.2z
	 M182.4,210.6l-34.7-35.1v35.1h-21.9v-75h21.9v30.1l33.1-30.1H207l-36.3,34.1l1.5,1.1l38.8,39.9H182.4z M81.6,152
	c-2.1-1.3-6.9-2-12.3-2h-4.8V168h4.9c3.7,0,7.6-0.2,9.7-0.7c2-0.5,3.5-1.3,4.4-2.6c0.9-1.2,2.3-3.1,2.3-5.5
	C85.7,155.7,83.7,153.3,81.6,152z M81.3,58.7c-2.3-1.4-7-2.1-12.1-2.1h-4.8v18.1h4.9c5.5,0,10.3-0.6,12.3-1.8c2-1.2,4-3.5,4-7
	C85.7,62.5,83.6,60.1,81.3,58.7z M81.6,152c-2.1-1.3-6.9-2-12.3-2h-4.8V168h4.9c3.7,0,7.6-0.2,9.7-0.7c2-0.5,3.5-1.3,4.4-2.6
	c0.9-1.2,2.3-3.1,2.3-5.5C85.7,155.7,83.7,153.3,81.6,152z M81.3,58.7c-2.3-1.4-7-2.1-12.1-2.1h-4.8v18.1h4.9
	c5.5,0,10.3-0.6,12.3-1.8c2-1.2,4-3.5,4-7C85.7,62.5,83.6,60.1,81.3,58.7z M81.6,152c-2.1-1.3-6.9-2-12.3-2h-4.8V168h4.9
	c3.7,0,7.6-0.2,9.7-0.7c2-0.5,3.5-1.3,4.4-2.6c0.9-1.2,2.3-3.1,2.3-5.5C85.7,155.7,83.7,153.3,81.6,152z M81.3,58.7
	c-2.3-1.4-7-2.1-12.1-2.1h-4.8v18.1h4.9c5.5,0,10.3-0.6,12.3-1.8c2-1.2,4-3.5,4-7C85.7,62.5,83.6,60.1,81.3,58.7z M81.6,152
	c-2.1-1.3-6.9-2-12.3-2h-4.8V168h4.9c3.7,0,7.6-0.2,9.7-0.7c2-0.5,3.5-1.3,4.4-2.6c0.9-1.2,2.3-3.1,2.3-5.5
	C85.7,155.7,83.7,153.3,81.6,152z M81.3,58.7c-2.3-1.4-7-2.1-12.1-2.1h-4.8v18.1h4.9c5.5,0,10.3-0.6,12.3-1.8c2-1.2,4-3.5,4-7
	C85.7,62.5,83.6,60.1,81.3,58.7z M81.3,58.7c-2.3-1.4-7-2.1-12.1-2.1h-4.8v18.1h4.9c5.5,0,10.3-0.6,12.3-1.8c2-1.2,4-3.5,4-7
	C85.7,62.5,83.6,60.1,81.3,58.7z M81.6,152c-2.1-1.3-6.9-2-12.3-2h-4.8V168h4.9c3.7,0,7.6-0.2,9.7-0.7c2-0.5,3.5-1.3,4.4-2.6
	c0.9-1.2,2.3-3.1,2.3-5.5C85.7,155.7,83.7,153.3,81.6,152z M81.6,152c-2.1-1.3-6.9-2-12.3-2h-4.8V168h4.9c3.7,0,7.6-0.2,9.7-0.7
	c2-0.5,3.5-1.3,4.4-2.6c0.9-1.2,2.3-3.1,2.3-5.5C85.7,155.7,83.7,153.3,81.6,152z M81.6,152c-2.1-1.3-6.9-2-12.3-2h-4.8V168h4.9
	c3.7,0,7.6-0.2,9.7-0.7c2-0.5,3.5-1.3,4.4-2.6c0.9-1.2,2.3-3.1,2.3-5.5C85.7,155.7,83.7,153.3,81.6,152z"/>
<polygon class="st1" points="211,210.6 182.4,210.6 147.7,175.5 147.7,210.6 125.8,210.6 125.8,135.6 147.7,135.6 147.7,165.6 
	180.8,135.6 207,135.6 170.7,169.6 172.2,170.7 "/>
<polygon class="st1" points="209,42.2 209,117.2 186.4,117.2 186.4,73.8 168,99 166.2,99 147.7,73.8 147.7,117.2 125.8,117.2 
	125.8,42.2 146.3,42.2 167.3,70.4 188.5,42.2 "/>
<path class="st1" d="M106.9,101c-2.7-5.9-4.8-9.8-6.4-11.7c-1.6-1.9-3.6-3.6-6-5c2-1.1,4.8-2.2,6.5-3.4c1.6-1.2,3.2-3.1,4.6-5.7
	c1.5-2.6,2.2-5.8,2.2-9.6c0-3.2-0.9-6.7-2.6-10.3c-1.8-3.6-4.6-6.7-8.6-9.2c-4-2.5-10-3.8-16.2-3.8H41.9v75h22.6V88H67
	c2.6,0,4.7,0.3,6.4,0.9c1.6,0.7,3.3,2.1,5.1,4.3c1.7,2.3,3.7,5.8,5.8,10.7l5.9,13.3h24.3L106.9,101z M81.7,72.9
	c-2,1.2-6.8,1.8-12.3,1.8h-4.9V56.6h4.8c5.1,0,9.8,0.7,12.1,2.1c2.3,1.4,4.4,3.8,4.4,7.2C85.7,69.4,83.7,71.7,81.7,72.9z"/>
<path class="st1" d="M106.4,150.9c-1-2.7-2.5-5.2-4.6-7.5c-2.2-2.3-5-4.2-8.6-5.6c-3.6-1.5-7.9-2.2-12.8-2.2H41.9v75h22.6v-28.1
	h15.8c4.9,0,9.2-0.7,12.8-2.1c3.6-1.4,6.5-3.3,8.6-5.6c2.1-2.3,3.7-4.8,4.6-7.4c1-2.6,1.4-5.4,1.4-8.1
	C107.8,156.4,107.3,153.6,106.4,150.9z M83.4,164.7c-0.9,1.3-2.4,2.1-4.4,2.6c-2,0.5-5.9,0.7-9.7,0.7h-4.9V150h4.8
	c5.5,0,10.2,0.7,12.3,2c2.1,1.3,4.1,3.8,4.1,7.3C85.7,161.7,84.3,163.5,83.4,164.7z"/>
</svg>
